# xmcd
#
# Track frame offsets:
# 150
# 5173
# 26194
# 47131
# 62995
# 82114
# 103949
# 119121
# 133219
# 147022
# 170544
# 187899
# 203971
# 218591
# 234340
# 249239
# 264564
# 278339
# 290480
# 302273
# 322046
# 339853
# 359314
#
# Disc length: 4796 seconds
#
#
# Revision: 0
# Processed by: cddbd v1.5.2PL0 Copyright (c) Steve Scherf et al.
# Submitted via: FreeRIP 2.96 
#
DISCID=5d12ba17
DTITLE=Andreas Franz - Jung, blond, tot
DYEAR=2007
DGENRE=Speech
TTITLE0=023 Was ist mit seiner Tochter?
TTITLE1=024 Samstag, 10.00 Uhr
TTITLE2=025 Sie verfügte zweifellos über beachtliche körperliche Vorzüge
TTITLE3=026 Samstag, 11.00 Uhr
TTITLE4=027 Ich will nicht lange stören
TTITLE5=028 Er hielt inne
TTITLE6=029 Die Frau zuckte die Schultern
TTITLE7=030 Als die Kommissarin vom Hausmädchen
TTITLE8=031 Donnerstag, also wenige Stunden bevor
TTITLE9=032 Samstag, 12.00 Uhr
TTITLE10=033 Samstag, 13.30 Uhr
TTITLE11=034 Sie schloss für Sekunden die Augen
TTITLE12=035 Am 18. März hörten die Eintragungen abrupt auf
TTITLE13=036 Die Eintragungen setzten sich in dieser Form
TTITLE14=037 Es waren noch 12 freie Seiten
TTITLE15=038 Was ist mit den Anderen?
TTITLE16=039 Fassen wir zuallererste eine krankhafte Veranlagung
TTITLE17=040 Er hielt inne, räusperte sich
TTITLE18=041 Und jetzt passiert das Seltsame
TTITLE19=042 Blitze zischten
TTITLE20=043 Samstag, 15.30 Uhr
TTITLE21=044 Sie schlug die Beine übereinander
TTITLE22=CD Wechsel
EXTD=gelesen von Julia Fischer
EXTT0=
EXTT1=
EXTT2=
EXTT3=
EXTT4=
EXTT5=
EXTT6=
EXTT7=
EXTT8=
EXTT9=
EXTT10=
EXTT11=
EXTT12=
EXTT13=
EXTT14=
EXTT15=
EXTT16=
EXTT17=
EXTT18=
EXTT19=
EXTT20=
EXTT21=
EXTT22=
PLAYORDER=
